<?xml version="1.0" standalone="no"?>
<!DOCTYPE svg PUBLIC "-//W3C//DTD SVG 20010904//EN"
 "http://www.w3.org/TR/2001/REC-SVG-20010904/DTD/svg10.dtd">
<svg version="1.0" xmlns="http://www.w3.org/2000/svg"
 width="512.000000pt" height="512.000000pt" viewBox="0 0 512.000000 512.000000"
 preserveAspectRatio="xMidYMid meet">
<metadata>
Created by potrace 1.11, written by Peter Selinger 2001-2013
</metadata>
<g transform="translate(0.000000,512.000000) scale(0.100000,-0.100000)"
fill="#000000" stroke="none">
<path d="M2649 5106 c-20 -8 -122 -57 -227 -110 -212 -107 -251 -140 -277
-231 -23 -82 -1 -187 50 -235 l24 -23 -28 -36 c-40 -52 -55 -96 -54 -165 0
-65 27 -135 65 -168 19 -16 19 -17 -1 -37 -24 -24 -60 -92 -64 -123 -3 -18
-20 -27 -98 -53 -117 -40 -182 -69 -284 -130 -304 -179 -517 -478 -552 -775
-9 -72 -8 -311 1 -423 16 -205 79 -372 184 -487 l59 -65 -57 -65 c-106 -120
-206 -288 -234 -395 -31 -119 -5 -267 66 -372 79 -118 225 -161 378 -114 36
12 66 21 68 21 2 0 0 -21 -3 -47 -4 -27 -8 -64 -10 -83 -2 -19 -7 -53 -9 -75
-20 -146 -28 -499 -14 -599 16 -119 100 -231 212 -283 52 -24 73 -28 146 -28
73 1 93 5 142 30 70 34 136 97 166 156 72 144 138 414 147 604 1 22 3 45 4 50
0 6 45 10 111 10 103 0 110 -1 111 -20 1 -11 3 -29 4 -40 1 -11 5 -54 9 -95
15 -154 79 -389 139 -505 34 -67 94 -125 164 -160 51 -25 69 -29 148 -29 82 0
96 3 150 31 112 58 189 164 203 277 15 129 2 549 -23 691 -18 107 -18 118 1
111 144 -56 283 -43 377 35 101 83 156 265 125 416 -23 113 -141 312 -260 438
l-37 40 43 45 c121 125 182 278 202 501 11 129 10 361 -2 444 -48 321 -270
613 -604 792 -80 43 -215 97 -293 118 -55 15 -67 21 -61 34 23 55 33 108 28
148 -6 50 -42 131 -68 152 -14 12 -13 17 13 46 72 82 74 220 6 310 -32 42 -33
44 -15 60 33 30 62 105 63 164 1 61 -28 138 -66 179 -62 67 -188 99 -268 68z
m144 -185 c26 -25 26 -86 1 -111 -26 -25 -377 -200 -403 -200 -35 0 -71 23
-78 49 -11 39 -10 44 4 73 11 22 55 48 206 124 204 101 228 107 270 65z m-29
-361 c41 -15 62 -74 43 -117 -14 -31 -373 -213 -420 -213 -38 0 -71 29 -80 70
-12 51 12 71 215 172 106 54 198 98 205 98 6 0 23 -4 37 -10z m14 -389 c11 -6
25 -25 31 -42 13 -38 0 -72 -41 -102 -25 -19 -42 -21 -180 -19 -84 0 -172 -3
-195 -7 -24 -5 -43 -5 -43 -2 0 13 370 190 389 186 11 -2 29 -8 39 -14z m52
-355 c238 -49 416 -128 571 -252 130 -104 211 -201 273 -328 61 -125 77 -207
78 -391 1 -144 -8 -320 -17 -335 -2 -3 -6 -21 -9 -42 -8 -51 -42 -135 -78
-191 -84 -131 -275 -233 -508 -271 -14 -2 -41 -7 -60 -10 -204 -36 -705 -41
-965 -10 -115 13 -277 48 -340 73 -261 102 -377 258 -401 542 -11 126 -7 381
6 444 57 277 261 514 566 659 106 51 251 96 372 116 132 22 397 20 512 -4z
m-1177 -1888 c29 -12 53 -22 55 -23 1 -1 -2 -14 -8 -29 -36 -95 -80 -406 -73
-523 l3 -61 -55 -21 c-115 -43 -184 -21 -230 74 -59 120 -36 224 89 412 36 54
154 193 164 193 2 0 27 -10 55 -22z m1911 -21 c152 -157 248 -337 240 -453 -4
-68 -43 -156 -79 -180 -42 -27 -111 -29 -176 -5 l-57 22 0 107 c0 113 -29 313
-61 435 -11 39 -17 73 -13 75 4 1 25 11 47 21 22 11 44 20 48 20 5 1 28 -18
51 -42z m-1633 -61 c36 -8 212 -33 294 -43 91 -10 546 -10 650 0 96 9 128 13
220 27 39 7 80 13 93 15 12 2 31 7 42 10 11 4 20 4 20 2 0 -2 9 -40 20 -83 11
-44 22 -97 26 -119 3 -22 8 -47 9 -55 8 -44 19 -191 17 -230 -6 -128 -76 -201
-257 -271 -139 -54 -275 -73 -515 -73 -284 1 -440 32 -599 121 -77 43 -107 73
-134 132 -27 62 -26 174 3 343 6 32 12 68 14 80 2 13 12 53 21 91 14 53 21 67
34 63 9 -2 27 -7 42 -10z m-24 -870 c104 -52 237 -91 359 -105 16 -2 5 -156
-22 -305 -5 -28 -57 -197 -77 -250 -32 -85 -109 -145 -185 -146 -80 0 -165 78
-179 164 -15 93 -7 417 14 576 3 25 7 56 8 70 3 29 4 30 9 30 3 0 36 -15 73
-34z m1389 4 c1 -14 5 -47 8 -75 15 -122 20 -222 20 -395 -1 -167 -3 -189 -21
-225 -26 -50 -57 -80 -105 -100 -94 -39 -189 9 -238 120 -24 54 -65 176 -76
230 -22 103 -28 141 -38 283 -4 43 -2 52 12 53 9 0 26 3 37 5 11 3 36 7 55 10
52 7 203 60 267 93 32 17 62 29 67 28 5 -2 10 -14 12 -27z"/>
<path d="M1913 2799 c-71 -22 -145 -86 -178 -154 -26 -53 -28 -195 -4 -241 15
-30 15 -33 -2 -48 -28 -24 -25 -81 6 -111 24 -25 27 -25 207 -26 329 -1 330
-1 353 54 13 32 5 74 -17 88 -7 5 -5 23 7 59 78 236 -133 452 -372 379z m157
-174 c66 -34 79 -138 24 -196 -72 -75 -200 -32 -211 71 -11 111 88 176 187
125z"/>
<path d="M3040 2805 c-167 -44 -261 -218 -206 -382 16 -49 16 -54 1 -69 -25
-25 -16 -92 15 -116 23 -17 46 -19 263 -18 146 0 245 4 257 10 25 13 48 59 42
85 -2 10 -11 29 -18 41 -12 18 -12 27 1 64 53 152 -26 322 -176 376 -58 20
-123 24 -179 9z m141 -181 c93 -48 66 -210 -38 -230 -48 -9 -82 3 -121 42 -32
32 -34 38 -30 88 8 102 96 149 189 100z"/>
<path d="M2435 1438 c-11 -6 -25 -19 -32 -27 -27 -34 -8 -101 34 -120 31 -14
215 -14 247 0 50 23 58 98 14 139 -19 18 -35 20 -132 20 -65 0 -119 -5 -131
-12z"/>
</g>
</svg>
